<svg id="visual" viewBox="0 0 675 900" width="675" height="900" xmlns="http://www.w3.org/2000/svg" xmlns:xlink="http://www.w3.org/1999/xlink" version="1.1"><rect x="0" y="0" width="675" height="900" fill="#ff0051"></rect><defs><linearGradient id="grad1_0" x1="0%" y1="100%" x2="100%" y2="0%"><stop offset="30%" stop-color="#1f181f" stop-opacity="1"></stop><stop offset="70%" stop-color="#1f181f" stop-opacity="1"></stop></linearGradient></defs><defs><linearGradient id="grad1_1" x1="0%" y1="100%" x2="100%" y2="0%"><stop offset="30%" stop-color="#1f181f" stop-opacity="1"></stop><stop offset="70%" stop-color="#872255" stop-opacity="1"></stop></linearGradient></defs><defs><linearGradient id="grad1_2" x1="0%" y1="100%" x2="100%" y2="0%"><stop offset="30%" stop-color="#ff0051" stop-opacity="1"></stop><stop offset="70%" stop-color="#872255" stop-opacity="1"></stop></linearGradient></defs><defs><linearGradient id="grad2_0" x1="0%" y1="100%" x2="100%" y2="0%"><stop offset="30%" stop-color="#1f181f" stop-opacity="1"></stop><stop offset="70%" stop-color="#1f181f" stop-opacity="1"></stop></linearGradient></defs><defs><linearGradient id="grad2_1" x1="0%" y1="100%" x2="100%" y2="0%"><stop offset="30%" stop-color="#872255" stop-opacity="1"></stop><stop offset="70%" stop-color="#1f181f" stop-opacity="1"></stop></linearGradient></defs><defs><linearGradient id="grad2_2" x1="0%" y1="100%" x2="100%" y2="0%"><stop offset="30%" stop-color="#872255" stop-opacity="1"></stop><stop offset="70%" stop-color="#ff0051" stop-opacity="1"></stop></linearGradient></defs><g transform="translate(675, 900)"><path d="M-506.2 0C-496.4 -94.4 -486.5 -188.8 -438.4 -253.1C-390.3 -317.4 -303.9 -351.7 -224.5 -388.8C-145.1 -426 -72.5 -466.1 0 -506.2L0 0Z" fill="#c4145b"></path><path d="M-337.5 0C-330.9 -62.9 -324.4 -125.9 -292.3 -168.8C-260.2 -211.6 -202.6 -234.4 -149.7 -259.2C-96.7 -284 -48.4 -310.8 0 -337.5L0 0Z" fill="#4e2240"></path><path d="M-168.7 0C-165.5 -31.5 -162.2 -62.9 -146.1 -84.4C-130.1 -105.8 -101.3 -117.2 -74.8 -129.6C-48.4 -142 -24.2 -155.4 0 -168.7L0 0Z" fill="#1f181f"></path></g><g transform="translate(0, 0)"><path d="M506.3 0C504.2 107.9 502.1 215.8 438.4 253.1C374.7 290.4 249.3 257.1 166 287.5C82.7 317.9 41.3 412.1 0 506.3L0 0Z" fill="#c4145b"></path><path d="M337.5 0C336.1 71.9 334.8 143.9 292.3 168.7C249.8 193.6 166.2 171.4 110.7 191.7C55.1 212 27.6 274.7 0 337.5L0 0Z" fill="#4e2240"></path><path d="M168.8 0C168.1 36 167.4 71.9 146.1 84.4C124.9 96.8 83.1 85.7 55.3 95.8C27.6 106 13.8 137.4 0 168.8L0 0Z" fill="#1f181f"></path></g></svg>