<svg id="visual" viewBox="0 0 675 900" width="675" height="900" xmlns="http://www.w3.org/2000/svg" xmlns:xlink="http://www.w3.org/1999/xlink" version="1.1"><path d="M0 82L28.2 92.5C56.3 103 112.7 124 169 128.5C225.3 133 281.7 121 337.8 109C394 97 450 85 506.2 89.5C562.3 94 618.7 115 646.8 125.5L675 136L675 0L646.8 0C618.7 0 562.3 0 506.2 0C450 0 394 0 337.8 0C281.7 0 225.3 0 169 0C112.7 0 56.3 0 28.2 0L0 0Z" fill="#ff0051"></path><path d="M0 226L28.2 232C56.3 238 112.7 250 169 248.5C225.3 247 281.7 232 337.8 200.5C394 169 450 121 506.2 112C562.3 103 618.7 133 646.8 148L675 163L675 134L646.8 123.5C618.7 113 562.3 92 506.2 87.5C450 83 394 95 337.8 107C281.7 119 225.3 131 169 126.5C112.7 122 56.3 101 28.2 90.5L0 80Z" fill="#9b1f59"></path><path d="M0 271L28.2 274C56.3 277 112.7 283 169 298C225.3 313 281.7 337 337.8 314.5C394 292 450 223 506.2 200.5C562.3 178 618.7 202 646.8 214L675 226L675 161L646.8 146C618.7 131 562.3 101 506.2 110C450 119 394 167 337.8 198.5C281.7 230 225.3 245 169 246.5C112.7 248 56.3 236 28.2 230L0 224Z" fill="#3d2036"></path><path d="M0 496L28.2 518.5C56.3 541 112.7 586 169 625C225.3 664 281.7 697 337.8 695.5C394 694 450 658 506.2 646C562.3 634 618.7 646 646.8 652L675 658L675 224L646.8 212C618.7 200 562.3 176 506.2 198.5C450 221 394 290 337.8 312.5C281.7 335 225.3 311 169 296C112.7 281 56.3 275 28.2 272L0 269Z" fill="#1f181f"></path><path d="M0 622L28.2 646C56.3 670 112.7 718 169 758.5C225.3 799 281.7 832 337.8 830.5C394 829 450 793 506.2 776.5C562.3 760 618.7 763 646.8 764.5L675 766L675 656L646.8 650C618.7 644 562.3 632 506.2 644C450 656 394 692 337.8 693.5C281.7 695 225.3 662 169 623C112.7 584 56.3 539 28.2 516.5L0 494Z" fill="#3d2036"></path><path d="M0 775L28.2 781C56.3 787 112.7 799 169 820C225.3 841 281.7 871 337.8 881.5C394 892 450 883 506.2 878.5C562.3 874 618.7 874 646.8 874L675 874L675 764L646.8 762.5C618.7 761 562.3 758 506.2 774.5C450 791 394 827 337.8 828.5C281.7 830 225.3 797 169 756.5C112.7 716 56.3 668 28.2 644L0 620Z" fill="#9b1f59"></path><path d="M0 901L28.2 901C56.3 901 112.7 901 169 901C225.3 901 281.7 901 337.8 901C394 901 450 901 506.2 901C562.3 901 618.7 901 646.8 901L675 901L675 872L646.8 872C618.7 872 562.3 872 506.2 876.5C450 881 394 890 337.8 879.5C281.7 869 225.3 839 169 818C112.7 797 56.3 785 28.2 779L0 773Z" fill="#ff0051"></path></svg>