<svg id="visual" viewBox="0 0 900 600" width="900" height="600" xmlns="http://www.w3.org/2000/svg" xmlns:xlink="http://www.w3.org/1999/xlink" version="1.1"><path d="M863 600L854 600L854 574L845 574L845 548L845 548L845 522L800 522L800 496L809 496L809 470L836 470L836 443L899 443L899 417L854 417L854 391L863 391L863 365L881 365L881 339L890 339L890 313L845 313L845 287L845 287L845 261L863 261L863 235L836 235L836 209L827 209L827 183L881 183L881 157L863 157L863 130L854 130L854 104L845 104L845 78L800 78L800 52L818 52L818 26L791 26L791 0L900 0L900 26L900 26L900 52L900 52L900 78L900 78L900 104L900 104L900 130L900 130L900 157L900 157L900 183L900 183L900 209L900 209L900 235L900 235L900 261L900 261L900 287L900 287L900 313L900 313L900 339L900 339L900 365L900 365L900 391L900 391L900 417L900 417L900 443L900 443L900 470L900 470L900 496L900 496L900 522L900 522L900 548L900 548L900 574L900 574L900 600L900 600Z" fill="#130f13"></path><path d="M845 600L818 600L818 574L800 574L800 548L755 548L755 522L737 522L737 496L755 496L755 470L746 470L746 443L791 443L791 417L809 417L809 391L773 391L773 365L827 365L827 339L782 339L782 313L845 313L845 287L827 287L827 261L764 261L764 235L773 235L773 209L764 209L764 183L845 183L845 157L836 157L836 130L800 130L800 104L782 104L782 78L800 78L800 52L800 52L800 26L782 26L782 0L792 0L792 26L819 26L819 52L801 52L801 78L846 78L846 104L855 104L855 130L864 130L864 157L882 157L882 183L828 183L828 209L837 209L837 235L864 235L864 261L846 261L846 287L846 287L846 313L891 313L891 339L882 339L882 365L864 365L864 391L855 391L855 417L900 417L900 443L837 443L837 470L810 470L810 496L801 496L801 522L846 522L846 548L846 548L846 574L855 574L855 600L864 600Z" fill="#120e12"></path><path d="M323 600L584 600L584 574L575 574L575 548L593 548L593 522L629 522L629 496L575 496L575 470L701 470L701 443L638 443L638 417L683 417L683 391L692 391L692 365L395 365L395 339L368 339L368 313L791 313L791 287L584 287L584 261L350 261L350 235L656 235L656 209L728 209L728 183L539 183L539 157L746 157L746 130L764 130L764 104L773 104L773 78L557 78L557 52L602 52L602 26L728 26L728 0L783 0L783 26L801 26L801 52L801 52L801 78L783 78L783 104L801 104L801 130L837 130L837 157L846 157L846 183L765 183L765 209L774 209L774 235L765 235L765 261L828 261L828 287L846 287L846 313L783 313L783 339L828 339L828 365L774 365L774 391L810 391L810 417L792 417L792 443L747 443L747 470L756 470L756 496L738 496L738 522L756 522L756 548L801 548L801 574L819 574L819 600L846 600Z" fill="#110c11"></path><path d="M269 600L539 600L539 574L521 574L521 548L503 548L503 522L566 522L566 496L503 496L503 470L611 470L611 443L611 443L611 417L602 417L602 391L683 391L683 365L314 365L314 339L359 339L359 313L764 313L764 287L557 287L557 261L278 261L278 235L593 235L593 209L647 209L647 183L512 183L512 157L665 157L665 130L728 130L728 104L692 104L692 78L512 78L512 52L575 52L575 26L719 26L719 0L729 0L729 26L603 26L603 52L558 52L558 78L774 78L774 104L765 104L765 130L747 130L747 157L540 157L540 183L729 183L729 209L657 209L657 235L351 235L351 261L585 261L585 287L792 287L792 313L369 313L369 339L396 339L396 365L693 365L693 391L684 391L684 417L639 417L639 443L702 443L702 470L576 470L576 496L630 496L630 522L594 522L594 548L576 548L576 574L585 574L585 600L324 600Z" fill="#100b10"></path><path d="M170 600L449 600L449 574L431 574L431 548L458 548L458 522L494 522L494 496L458 496L458 470L557 470L557 443L584 443L584 417L548 417L548 391L602 391L602 365L269 365L269 339L269 339L269 313L764 313L764 287L503 287L503 261L251 261L251 235L575 235L575 209L620 209L620 183L485 183L485 157L584 157L584 130L665 130L665 104L611 104L611 78L413 78L413 52L494 52L494 26L683 26L683 0L720 0L720 26L576 26L576 52L513 52L513 78L693 78L693 104L729 104L729 130L666 130L666 157L513 157L513 183L648 183L648 209L594 209L594 235L279 235L279 261L558 261L558 287L765 287L765 313L360 313L360 339L315 339L315 365L684 365L684 391L603 391L603 417L612 417L612 443L612 443L612 470L504 470L504 496L567 496L567 522L504 522L504 548L522 548L522 574L540 574L540 600L270 600Z" fill="#0f090f"></path><path d="M143 600L314 600L314 574L368 574L368 548L305 548L305 522L341 522L341 496L305 496L305 470L449 470L449 443L368 443L368 417L512 417L512 391L584 391L584 365L188 365L188 339L242 339L242 313L683 313L683 287L440 287L440 261L251 261L251 235L575 235L575 209L449 209L449 183L422 183L422 157L521 157L521 130L584 130L584 104L611 104L611 78L341 78L341 52L350 52L350 26L629 26L629 0L684 0L684 26L495 26L495 52L414 52L414 78L612 78L612 104L666 104L666 130L585 130L585 157L486 157L486 183L621 183L621 209L576 209L576 235L252 235L252 261L504 261L504 287L765 287L765 313L270 313L270 339L270 339L270 365L603 365L603 391L549 391L549 417L585 417L585 443L558 443L558 470L459 470L459 496L495 496L495 522L459 522L459 548L432 548L432 574L450 574L450 600L171 600Z" fill="#0e080e"></path><path d="M71 600L314 600L314 574L251 574L251 548L251 548L251 522L323 522L323 496L242 496L242 470L395 470L395 443L215 443L215 417L494 417L494 391L521 391L521 365L188 365L188 339L125 339L125 313L521 313L521 287L431 287L431 261L197 261L197 235L566 235L566 209L431 209L431 183L395 183L395 157L413 157L413 130L503 130L503 104L521 104L521 78L224 78L224 52L323 52L323 26L593 26L593 0L630 0L630 26L351 26L351 52L342 52L342 78L612 78L612 104L585 104L585 130L522 130L522 157L423 157L423 183L450 183L450 209L576 209L576 235L252 235L252 261L441 261L441 287L684 287L684 313L243 313L243 339L189 339L189 365L585 365L585 391L513 391L513 417L369 417L369 443L450 443L450 470L306 470L306 496L342 496L342 522L306 522L306 548L369 548L369 574L315 574L315 600L144 600Z" fill="#0c060c"></path><path d="M62 600L251 600L251 574L251 574L251 548L251 548L251 522L269 522L269 496L242 496L242 470L386 470L386 443L215 443L215 417L449 417L449 391L512 391L512 365L188 365L188 339L107 339L107 313L503 313L503 287L368 287L368 261L161 261L161 235L530 235L530 209L386 209L386 183L377 183L377 157L413 157L413 130L503 130L503 104L521 104L521 78L197 78L197 52L251 52L251 26L548 26L548 0L594 0L594 26L324 26L324 52L225 52L225 78L522 78L522 104L504 104L504 130L414 130L414 157L396 157L396 183L432 183L432 209L567 209L567 235L198 235L198 261L432 261L432 287L522 287L522 313L126 313L126 339L189 339L189 365L522 365L522 391L495 391L495 417L216 417L216 443L396 443L396 470L243 470L243 496L324 496L324 522L252 522L252 548L252 548L252 574L315 574L315 600L72 600Z" fill="#0b050b"></path><path d="M62 600L188 600L188 574L152 574L152 548L170 548L170 522L179 522L179 496L107 496L107 470L188 470L188 443L134 443L134 417L98 417L98 391L134 391L134 365L170 365L170 339L107 339L107 313L260 313L260 287L125 287L125 261L107 261L107 235L179 235L179 209L161 209L161 183L197 183L197 157L161 157L161 130L53 130L53 104L179 104L179 78L188 78L188 52L188 52L188 26L170 26L170 0L549 0L549 26L252 26L252 52L198 52L198 78L522 78L522 104L504 104L504 130L414 130L414 157L378 157L378 183L387 183L387 209L531 209L531 235L162 235L162 261L369 261L369 287L504 287L504 313L108 313L108 339L189 339L189 365L513 365L513 391L450 391L450 417L216 417L216 443L387 443L387 470L243 470L243 496L270 496L270 522L252 522L252 548L252 548L252 574L252 574L252 600L63 600Z" fill="#090309"></path><path d="M62 600L44 600L44 574L53 574L53 548L107 548L107 522L62 522L62 496L53 496L53 470L62 470L62 443L35 443L35 417L53 417L53 391L53 391L53 365L152 365L152 339L71 339L71 313L116 313L116 287L125 287L125 261L53 261L53 235L116 235L116 209L62 209L62 183L44 183L44 157L62 157L62 130L35 130L35 104L107 104L107 78L62 78L62 52L107 52L107 26L80 26L80 0L171 0L171 26L189 26L189 52L189 52L189 78L180 78L180 104L54 104L54 130L162 130L162 157L198 157L198 183L162 183L162 209L180 209L180 235L108 235L108 261L126 261L126 287L261 287L261 313L108 313L108 339L171 339L171 365L135 365L135 391L99 391L99 417L135 417L135 443L189 443L189 470L108 470L108 496L180 496L180 522L171 522L171 548L153 548L153 574L189 574L189 600L63 600Z" fill="#080108"></path><path d="M26 600L26 600L26 574L26 574L26 548L53 548L53 522L8 522L8 496L44 496L44 470L17 470L17 443L26 443L26 417L44 417L44 391L35 391L35 365L71 365L71 339L44 339L44 313L62 313L62 287L71 287L71 261L35 261L35 235L53 235L53 209L17 209L17 183L17 183L17 157L35 157L35 130L35 130L35 104L62 104L62 78L17 78L17 52L44 52L44 26L8 26L8 0L81 0L81 26L108 26L108 52L63 52L63 78L108 78L108 104L36 104L36 130L63 130L63 157L45 157L45 183L63 183L63 209L117 209L117 235L54 235L54 261L126 261L126 287L117 287L117 313L72 313L72 339L153 339L153 365L54 365L54 391L54 391L54 417L36 417L36 443L63 443L63 470L54 470L54 496L63 496L63 522L108 522L108 548L54 548L54 574L45 574L45 600L63 600Z" fill="#060006"></path><path d="M0 600L0 600L0 574L0 574L0 548L0 548L0 522L0 522L0 496L0 496L0 470L0 470L0 443L0 443L0 417L0 417L0 391L0 391L0 365L0 365L0 339L0 339L0 313L0 313L0 287L0 287L0 261L0 261L0 235L0 235L0 209L0 209L0 183L0 183L0 157L0 157L0 130L0 130L0 104L0 104L0 78L0 78L0 52L0 52L0 26L0 26L0 0L9 0L9 26L45 26L45 52L18 52L18 78L63 78L63 104L36 104L36 130L36 130L36 157L18 157L18 183L18 183L18 209L54 209L54 235L36 235L36 261L72 261L72 287L63 287L63 313L45 313L45 339L72 339L72 365L36 365L36 391L45 391L45 417L27 417L27 443L18 443L18 470L45 470L45 496L9 496L9 522L54 522L54 548L27 548L27 574L27 574L27 600L27 600Z" fill="#000000"></path></svg>